<?xml version="1.0" encoding="UTF-8" standalone="no"?>
<!-- Created with Inkscape (http://www.inkscape.org/) -->

<svg
   xmlns:dc="http://purl.org/dc/elements/1.1/"
   xmlns:cc="http://creativecommons.org/ns#"
   xmlns:rdf="http://www.w3.org/1999/02/22-rdf-syntax-ns#"
   xmlns:svg="http://www.w3.org/2000/svg"
   xmlns="http://www.w3.org/2000/svg"
   xmlns:sodipodi="http://sodipodi.sourceforge.net/DTD/sodipodi-0.dtd"
   xmlns:inkscape="http://www.inkscape.org/namespaces/inkscape"
   width="73.403854mm"
   height="17.904442mm"
   viewBox="0 0 73.403854 17.904442"
   version="1.1"
   id="svg4540"
   inkscape:version="0.92.4 (5da689c313, 2019-01-14)"
   sodipodi:docname="drawing.svg">
  <defs
     id="defs4534" />
  <sodipodi:namedview
     id="base"
     pagecolor="#ffffff"
     bordercolor="#666666"
     borderopacity="1.0"
     inkscape:pageopacity="0.0"
     inkscape:pageshadow="2"
     inkscape:zoom="0.7"
     inkscape:cx="-16.303725"
     inkscape:cy="29.498782"
     inkscape:document-units="mm"
     inkscape:current-layer="layer1"
     showgrid="false"
     inkscape:window-width="1920"
     inkscape:window-height="1001"
     inkscape:window-x="-9"
     inkscape:window-y="-9"
     inkscape:window-maximized="1"
     fit-margin-top="0"
     fit-margin-left="0"
     fit-margin-right="0"
     fit-margin-bottom="0" />
  <metadata
     id="metadata4537">
    <rdf:RDF>
      <cc:Work
         rdf:about="">
        <dc:format>image/svg+xml</dc:format>
        <dc:type
           rdf:resource="http://purl.org/dc/dcmitype/StillImage" />
        <dc:title></dc:title>
      </cc:Work>
    </rdf:RDF>
  </metadata>
  <g
     inkscape:label="Layer 1"
     inkscape:groupmode="layer"
     id="layer1"
     transform="translate(-69.131405,-139.8811)">
    <path
       style="fill:#000000;stroke-width:0.79374999"
       d="m 71.10755,156.6734 c -4.733799,-4.73382 -0.37812,-15.26538 6.876366,-16.62633 5.685132,-1.06653 9.765228,3.21765 6.500259,6.82539 -0.757587,0.83715 -2.056704,1.52205 -2.886918,1.52205 -1.401342,0 -1.420962,0.1263 -0.27384,1.76412 0.679593,0.97026 1.235631,2.37792 1.235631,3.12816 0,1.89621 1.26138,2.48187 3.158592,1.46652 1.267953,-0.6786 1.603908,-0.61638 1.603908,0.297 0,1.19298 -4.169997,2.53524 -5.439258,1.7508 -0.393519,-0.2433 -1.121751,-2.05563 -1.61829,-4.02759 -1.098822,-4.3638 -2.214468,-4.5957 -2.9289,-0.60879 -0.90801,5.06724 -3.669576,7.06653 -6.227538,4.50855 z m 3.984339,-2.33592 c 0.27534,-1.09698 0.335454,-3.11973 0.13362,-4.49493 -0.23229,-1.58268 0.09129,-3.03564 0.881556,-3.95859 1.645158,-1.92141 2.7726,-1.8567 2.25324,0.1293 -0.2763,1.05657 -0.0243,1.58748 0.753357,1.58748 4.220727,0 6.019482,-5.07915 2.143293,-6.05202 -6.184179,-1.55214 -11.922246,6.76884 -9.328611,13.52775 0.739338,1.92666 2.603826,1.49112 3.163554,-0.73899 z m 14.015598,1.09479 c -2.456265,-2.48859 0.018,-8.93295 3.25164,-8.47197 2.59104,0.36924 2.61516,3.29985 0.0438,5.32248 -2.78568,2.1912 -1.7343,3.24441 1.42734,1.42986 2.69169,-1.54482 3.96993,-1.16913 2.16462,0.63618 -1.65945,1.65945 -5.69268,2.29392 -6.88743,1.08345 z m 3.30717,-5.16699 c 0.2754,-0.71733 0.33726,-1.46748 0.1377,-1.66698 -0.63081,-0.63081 -2.05587,0.63588 -2.05587,1.82745 0,1.55694 1.30089,1.44813 1.91814,-0.1605 z m 5.22564,2.55978 c 0,-1.92882 0.2169,-4.07196 0.4818,-4.7625 0.76695,-1.99872 1.896513,-1.45638 1.931223,0.92727 l 0.0318,2.1828 1.20993,-2.23191 c 1.78686,-3.29622 3.14241,-2.28579 2.82219,2.10366 -0.1485,2.03508 0.0303,3.68877 0.39687,3.67488 1.4271,-0.054 3.36483,-2.15724 3.8805,-4.21191 0.96,-3.82494 5.58276,-4.71237 8.63706,-1.65807 1.83042,1.83042 1.52133,3.21534 -0.34137,1.52961 -1.55397,-1.40634 -1.58751,-1.38639 -1.58751,0.94458 0,2.97033 -2.42295,5.35422 -4.70562,4.62972 -0.90435,-0.2871 -1.64433,-0.83385 -1.64433,-1.21509 0,-0.38124 -0.98226,-0.1809 -2.18283,0.44547 -3.696,1.92804 -4.73367,1.28433 -4.22643,-2.62188 0.2223,-1.71207 -0.64512,-1.08615 -1.92513,1.38909 -1.743903,3.37236 -2.778123,2.95332 -2.778123,-1.12572 z m 15.548583,-0.0633 c 0.56481,-2.2503 -0.027,-4.3674 -1.22106,-4.3674 -1.01709,0 -1.94742,3.57774 -1.34118,5.1576 0.69996,1.824 2.00733,1.4208 2.56224,-0.7902 z m 5.88267,1.35423 c 0,-3.86127 0.9447,-7.39161 1.89135,-7.06791 0.48771,0.1668 0.78567,1.16298 0.66213,2.21382 -0.2205,1.87572 -0.1989,1.87068 1.17849,-0.2763 1.65294,-2.57622 3.10869,-2.43207 2.79024,0.2763 -0.2208,1.87755 -0.2004,1.87287 1.17606,-0.2721 2.01084,-3.13371 2.62047,-2.71824 2.62047,1.78593 0,4.03191 0.51198,4.72677 2.22249,3.01626 0.74085,-0.74085 0.9525,-0.73707 0.9525,0.018 0,0.53322 -0.91854,1.38804 -2.0412,1.89954 -1.6527,0.75303 -2.17803,0.71202 -2.76,-0.2154 -0.39534,-0.63003 -0.52428,-1.77057 -0.2865,-2.53455 0.75615,-2.43003 -0.51516,-1.49208 -1.39377,1.02825 -1.01871,2.9223 -2.71062,2.63781 -2.48394,-0.41769 0.1758,-2.3697 -0.2961,-2.22744 -1.66995,0.50331 -1.36992,2.72322 -2.85834,2.74596 -2.85834,0.0438 z m 15.53481,0.96855 c -1.48479,-1.48479 -1.56213,-2.74953 -0.33312,-5.44695 0.95019,-2.08545 3.24906,-3.29478 4.63494,-2.43825 1.42542,0.88095 0.85203,4.24416 -0.9372,5.49738 -2.49258,1.74588 -0.98649,2.67057 1.77156,1.08765 1.27176,-0.7299 2.51052,-1.00629 2.75283,-0.61422 0.48741,0.78861 -3.61698,3.1617 -5.46834,3.1617 -0.64533,0 -1.73463,-0.56127 -2.42067,-1.24731 z m 3.51519,-5.59674 c 0,-1.494 -1.30677,-1.38246 -1.89945,0.162 -0.84036,2.18994 -0.55341,2.967 0.70881,1.91946 0.65484,-0.54348 1.19064,-1.48017 1.19064,-2.08158 z"
       id="path16"
       inkscape:connector-curvature="0"
       sodipodi:nodetypes="cssscscscccccccccssccccccscccccsccccccscccccscsccccccscccccccsscssccccccccccccsscscsss" />
  </g>
</svg>
