<?xml version="1.0" encoding="UTF-8" standalone="no"?>
<!-- Created with Inkscape (http://www.inkscape.org/) -->

<svg
   xmlns:dc="http://purl.org/dc/elements/1.1/"
   xmlns:cc="http://creativecommons.org/ns#"
   xmlns:rdf="http://www.w3.org/1999/02/22-rdf-syntax-ns#"
   xmlns:svg="http://www.w3.org/2000/svg"
   xmlns="http://www.w3.org/2000/svg"
   xmlns:sodipodi="http://sodipodi.sourceforge.net/DTD/sodipodi-0.dtd"
   xmlns:inkscape="http://www.inkscape.org/namespaces/inkscape"
   width="59.98872mm"
   height="39.863861mm"
   viewBox="0 0 59.98872 39.863861"
   version="1.1"
   id="svg8"
   inkscape:version="0.92.4 (5da689c313, 2019-01-14)"
   sodipodi:docname="frame.svg">
  <defs
     id="defs2" />
  <sodipodi:namedview
     id="base"
     pagecolor="#ffffff"
     bordercolor="#666666"
     borderopacity="1.0"
     inkscape:pageopacity="0.0"
     inkscape:pageshadow="2"
     inkscape:zoom="1.979899"
     inkscape:cx="30.699114"
     inkscape:cy="-24.509272"
     inkscape:document-units="mm"
     inkscape:current-layer="layer1"
     showgrid="false"
     fit-margin-top="0"
     fit-margin-left="0"
     fit-margin-right="0"
     fit-margin-bottom="0"
     inkscape:window-width="1920"
     inkscape:window-height="1001"
     inkscape:window-x="-9"
     inkscape:window-y="-9"
     inkscape:window-maximized="1" />
  <metadata
     id="metadata5">
    <rdf:RDF>
      <cc:Work
         rdf:about="">
        <dc:format>image/svg+xml</dc:format>
        <dc:type
           rdf:resource="http://purl.org/dc/dcmitype/StillImage" />
        <dc:title></dc:title>
      </cc:Work>
    </rdf:RDF>
  </metadata>
  <g
     inkscape:label="Layer 1"
     inkscape:groupmode="layer"
     id="layer1"
     transform="translate(-61.565991,-127.13401)">
    <path
       style="fill:#000000;stroke-width:0.35277781"
       d="m 67.649171,166.55693 c 0.181569,-2.47657 -1.586506,-3.81146 -2.109528,-4.36907 -0.878217,-0.72966 -0.983492,-0.50496 -1.43671,-0.78067 0,0 -0.476272,-0.40225 -1.199112,-0.47186 l -1.15323,-0.11104 -0.0923,-13.67014 -0.0923,-13.67014 h 0.81702 c 0.44936,0 1.57711,-0.48204 2.50611,-1.07119 2.34942,-2.33005 1.959902,-1.4291 2.34942,-2.33005 0.21136,-0.55467 0.47196,-1.44505 0.57911,-1.97862 l 0.19482,-0.97014 h 23.54692 23.546929 l 0.22962,1.43595 c 0.12629,0.78977 0.4805,1.81885 0.78715,2.28684 0.75603,1.15385 2.75496,2.34083 4.12319,2.44837 l 1.12383,0.0883 0.0923,13.61944 0.0923,13.61944 -0.97428,0.20516 c -1.99212,0.26515 -1.97411,0.4573 -2.58967,0.93966 -1.23266,0.0974 -2.36644,1.98093 -2.66032,3.8188 l -0.22418,1.4019 H 91.397651 c -18.71046,0 -23.71702,-0.093 -23.74847,-0.44097 z m 46.841699,-0.84495 c 0,-2.23328 3.19263,-5.41686 5.43224,-5.41686 h 0.92645 l -0.0925,-12.94723 -0.0925,-12.94723 -1.94027,-0.73554 c -1.56247,-0.59231 -2.16353,-1.06713 -3.08681,-2.43847 -0.63059,-0.93661 -1.14653,-2.08187 -1.14653,-2.54501 v -0.84208 H 91.604491 68.718031 l -0.26977,1.14653 c -0.14837,0.63059 -0.28728,1.25001 -0.30868,1.37649 -0.13877,0.82013 -2.5787,2.82727 -4.08899,3.36368 l -1.77075,0.62891 v 12.92489 12.92488 l 1.41607,0.22645 c 1.01339,0.16204 1.83144,0.6418 2.87673,1.68709 1.54108,1.46474 0.530898,0.40204 1.54108,1.46474 0.0121,0.22884 0.15087,1.01138 0.30834,1.73899 l 0.28631,1.32291 h 22.89129 22.891299 v -0.93311 z m -44.993149,-2.15366 c -0.73878,-1.7686 -2.1008,-3.14803 -4.13116,-4.18398 l -1.67569,-0.85499 v -11.2193 c 0,-11.1979 10e-4,-11.22063 0.79375,-11.90031 0.43656,-0.37454 0.98482,-0.68098 1.21836,-0.68098 0.74243,0 3.22588,-2.62368 3.68483,-3.8929 l 0.44202,-1.22238 h 21.58217 21.582159 l 0.46697,1.12738 c 0.94456,2.28036 3.91961,4.83734 5.10085,4.38406 0.39812,-0.15277 0.48405,1.81516 0.50559,11.5778 l 0.0259,11.76186 -1.93307,1.09096 c -1.10448,-0.0508 -2.33789,1.99753 -2.98879,3.06339 -0.18519,-0.11445 -0.53851,0.34999 -0.78517,1.03211 l -0.44845,1.2402 H 91.494151 70.050311 Z m 43.423009,-2.13589 c 0.59162,-0.91106 1.90131,-2.2046 2.91041,-2.87452 l 1.83473,-1.21805 v -10.2926 -10.29262 l -1.03283,-0.42781 c -0.56805,-0.2353 -1.30364,-0.72707 -1.63464,-1.09282 -1.14328,-1.03442 -0.67226,-0.36987 -1.14328,-1.03442 -0.17852,0 -0.70355,-0.71437 -1.16674,-1.5875 l -0.84217,-1.5875 H 91.479861 71.113501 l -0.71772,1.40687 c -0.65981,1.29332 -3.86974,4.23758 -4.61996,4.23758 -0.18575,0 -0.3211,4.42467 -0.3211,10.49722 v 10.49721 l 0.99207,0.43913 c 0.54563,0.24153 1.34144,0.76463 1.76845,1.16245 0.42702,0.39783 0.697751,0.91843 0.919251,0.78154 0.29436,-0.0279 0.840846,1.16562 1.144749,1.63703 l 0.94525,1.44375 20.31025,-0.0192 20.310259,-0.0192 1.07569,-1.65647 z"
       id="path828"
       inkscape:connector-curvature="0"
       sodipodi:nodetypes="cccccccsccccccccccccccccscccsccccssccccsccccsccsccccccccscscccccsccccccccccccccccccccccsscccccccccc" />
  </g>
</svg>
